<?xml version="1.0" encoding="UTF-8"?>
<svg version="1.1" xmlns="http://www.w3.org/2000/svg" width="262" height="262">
<path d="M0 0 C86.46 0 172.92 0 262 0 C262 86.46 262 172.92 262 262 C175.54 262 89.08 262 0 262 C0 175.54 0 89.08 0 0 Z " fill="#4DA9D5" transform="translate(0,0)"/>
<path d="M0 0 C8.82877881 6.0016529 15.00310081 14.12322656 17.5 24.6171875 C19.45433431 36.36048836 17.20397527 46.33759903 10.83203125 56.26171875 C9.75748515 58.23122939 9.75748515 58.23122939 10.171875 60.39453125 C11.21587024 62.93827601 12.98400348 64.37527051 14.94140625 66.26953125 C14.94140625 66.92953125 14.94140625 67.58953125 14.94140625 68.26953125 C15.76640625 68.10453125 16.59140625 67.93953125 17.44140625 67.76953125 C26.22768363 69.02471373 32.76962342 80.70024498 37.94140625 87.26953125 C38.51375 87.9759375 39.08609375 88.68234375 39.67578125 89.41015625 C41.54713293 92.15942601 41.41442318 94.02598657 40.94140625 97.26953125 C39.31640625 99.64453125 39.31640625 99.64453125 36.94140625 101.26953125 C33.3269207 101.7038686 31.50020696 101.61347394 28.37109375 99.6875 C23.29932956 95.25940008 23.29932956 95.25940008 21.49707031 93.63867188 C19.87600413 92.21197082 18.20959787 90.85770668 16.52734375 89.50390625 C15.4142237 88.57297705 14.30221888 87.64071252 13.19140625 86.70703125 C12.65370605 86.28510498 12.11600586 85.86317871 11.56201172 85.4284668 C10.08203125 84.140625 10.08203125 84.140625 7.94140625 81.26953125 C7.96264648 79.28955078 7.96264648 79.28955078 8.328125 77.1796875 C9.35924438 73.38220204 9.35924438 73.38220204 7.5078125 70.95703125 C6.84652344 70.40015625 6.18523437 69.84328125 5.50390625 69.26953125 C4.84519531 68.69203125 4.18648437 68.11453125 3.5078125 67.51953125 C2.99089844 67.10703125 2.47398437 66.69453125 1.94140625 66.26953125 C1.34972656 66.54667969 0.75804687 66.82382813 0.1484375 67.109375 C-0.64175781 67.47160156 -1.43195313 67.83382812 -2.24609375 68.20703125 C-3.41205078 68.74650391 -3.41205078 68.74650391 -4.6015625 69.296875 C-14.22763684 73.10751492 -27.14430652 72.63910236 -36.59765625 68.59375 C-47.1965079 62.8905584 -53.78833732 54.68015412 -58.14453125 43.55078125 C-60.92848414 33.55710423 -59.63299825 23.01747246 -54.8046875 13.90234375 C-48.66704182 3.96838862 -40.18338498 -1.95949733 -29.0390625 -5.34375 C-18.9286692 -7.31796881 -8.87394324 -5.02063456 0 0 Z " fill="#E2F0F3" transform="translate(204.05859375,85.73046875)"/>
<path d="M0 0 C6.36256416 4.80616392 11.50114218 12.0774658 13 20 C13.86864771 29.67205818 11.85645233 37.60380181 5.734375 45.2109375 C-0.33518312 51.47187809 -7.77197808 54.00407694 -16.375 54.375 C-24.92460468 54.17617198 -31.02156937 50.66615133 -37.20703125 44.9375 C-44.25081708 37.32591444 -45.45725852 30.01436232 -45.28125 19.96484375 C-44.93175748 15.03797008 -43.91553353 11.92254347 -41 8 C-40.278125 6.948125 -39.55625 5.89625 -38.8125 4.8125 C-28.53448931 -5.46551069 -12.58905517 -7.50458668 0 0 Z " fill="#49A7D3" transform="translate(200,94)"/>
<path d="M0 0 C8.2264001 4.91745704 13.12276658 10.34162216 16.25 19.4375 C17.25 23.4375 17.25 23.4375 17.25 37.4375 C-4.53 37.4375 -26.31 37.4375 -48.75 37.4375 C-48.75 15.97801173 -48.75 15.97801173 -40.85546875 6.484375 C-30.31356927 -3.76415065 -13.31980445 -6.36371852 0 0 Z " fill="#E0EFF2" transform="translate(172.75,209.5625)"/>
<path d="M0 0 C2.35511538 1.59219068 4.24873328 3.09015563 6.3125 5 C6.90208496 5.52529297 7.49166992 6.05058594 8.09912109 6.59179688 C10.08487635 8.37500819 12.04449519 10.18367867 14 12 C15.10915771 13.02673828 15.10915771 13.02673828 16.24072266 14.07421875 C29.14327901 26.0522419 29.14327901 26.0522419 35 32 C33.97906494 33.96864319 33.97906494 33.96864319 32 36 C29.31013149 36.39784096 27.02604776 36.53707658 24.33496094 36.50170898 C23.16611107 36.50981346 23.16611107 36.50981346 21.97364807 36.51808167 C19.39350568 36.53060409 16.81447206 36.51404935 14.234375 36.49609375 C12.43939149 36.49624872 10.64440765 36.49773736 8.84942627 36.50050354 C5.08322393 36.50188932 1.31740155 36.48930477 -2.44873047 36.46655273 C-7.26510035 36.43824919 -12.08083485 36.44088079 -16.89725113 36.45364285 C-20.60686619 36.46061743 -24.31633582 36.45278909 -28.02593231 36.44038582 C-29.8008544 36.43588282 -31.57579218 36.43552442 -33.35071564 36.43945122 C-35.83992653 36.44237881 -38.3282805 36.42578055 -40.81738281 36.40405273 C-41.54491257 36.40855438 -42.27244232 36.41305603 -43.02201843 36.41769409 C-49.29040093 36.32729953 -53.999425 35.000575 -58.5 30.5 C-58.995 29.675 -59.49 28.85 -60 28 C-58.78513333 24.35539999 -58.05458639 24.1929979 -54.75 22.46875 C-53.8429834 21.9929248 -52.9359668 21.51709961 -52.00146484 21.02685547 C-51.01098145 20.52299316 -50.02049805 20.01913086 -49 19.5 C-47.98502441 18.97680176 -46.97004883 18.45360352 -45.92431641 17.91455078 C-34.51127091 12.11305002 -22.80602773 6.94629862 -11 2 C-9.69349487 1.45110107 -9.69349487 1.45110107 -8.3605957 0.89111328 C-5.27252403 -0.2746186 -3.28294876 -0.46602061 0 0 Z " fill="#74C6DB" transform="translate(81,211)"/>
<path d="M0 0 C4.23888939 1.03212835 6.64027408 4.14464647 9.60961914 7.18432617 C10.25479492 7.80178711 10.8999707 8.41924805 11.56469727 9.05541992 C14.33793463 11.8433305 16.08063568 13.7739443 17.13696289 17.60620117 C15.86442313 22.0808061 13.01518256 24.22484513 9.54711914 27.18432617 C8.1702879 28.40883273 6.79531551 29.63543225 5.42211914 30.86401367 C4.72989258 31.47728516 4.03766602 32.09055664 3.32446289 32.72241211 C-0.2366988 35.94907161 -3.57949388 39.38709511 -6.93237305 42.82739258 C-12.45047695 48.44117486 -12.45047695 48.44117486 -17.01538086 48.87182617 C-20.94561985 48.53875507 -23.32629944 47.53586164 -26.70288086 45.55932617 C-28.03559017 48.47584907 -28.03559017 48.47584907 -26.74194336 50.93432617 C-26.27530273 51.80057617 -25.80866211 52.66682617 -25.32788086 53.55932617 C-22.52036212 58.82930548 -21.37811572 62.49704356 -21.70288086 68.55932617 C-22.36288086 69.54932617 -23.02288086 70.53932617 -23.70288086 71.55932617 C-27.26516756 70.98779446 -28.83344279 69.73874387 -31.26538086 67.12182617 C-33.38174393 64.864058 -35.09306871 63.29920094 -37.70288086 61.55932617 C-37.70288086 60.89932617 -37.70288086 60.23932617 -37.70288086 59.55932617 C-38.36288086 59.55932617 -39.02288086 59.55932617 -39.70288086 59.55932617 C-39.95038086 60.42557617 -40.19788086 61.29182617 -40.45288086 62.18432617 C-41.80335658 65.83061061 -43.24695516 68.54204602 -45.70288086 71.55932617 C-48.20288086 72.68432617 -48.20288086 72.68432617 -50.70288086 72.55932617 C-53.32783518 70.66352583 -54.47554576 69.08085963 -55.76538086 66.12182617 C-55.70288086 63.55932617 -55.70288086 63.55932617 -53.76538086 60.87182617 C-49.99930671 58.0280559 -47.30439312 57.41723524 -42.70288086 56.55932617 C-42.70288086 55.89932617 -42.70288086 55.23932617 -42.70288086 54.55932617 C-43.36288086 54.55932617 -44.02288086 54.55932617 -44.70288086 54.55932617 C-44.70288086 53.89932617 -44.70288086 53.23932617 -44.70288086 52.55932617 C-45.25975586 52.35307617 -45.81663086 52.14682617 -46.39038086 51.93432617 C-49.74801729 49.9378937 -51.45223298 47.77453742 -53.70288086 44.55932617 C-53.33959961 42.36401367 -53.33959961 42.36401367 -52.70288086 40.55932617 C-38.53613771 39.85197145 -38.53613771 39.85197145 -31.70288086 44.55932617 C-30.21788086 44.06432617 -30.21788086 44.06432617 -28.70288086 43.55932617 C-29.38350586 42.54870117 -30.06413086 41.53807617 -30.76538086 40.49682617 C-32.52151184 37.88923774 -32.70296531 36.56384316 -32.64306641 33.36010742 C-31.40534701 28.35651989 -29.05625487 26.06083023 -25.43725586 22.53198242 C-24.80684387 21.89820175 -24.17643188 21.26442108 -23.5269165 20.61143494 C-22.1958675 19.28068395 -20.85736491 17.95735149 -19.51196289 16.64111328 C-17.45407072 14.62299304 -15.42724014 12.5770506 -13.40209961 10.52612305 C-12.10306755 9.23464769 -10.80234194 7.94487309 -9.49975586 6.65698242 C-8.89435974 6.0446022 -8.28896362 5.43222198 -7.66522217 4.80128479 C-3.43572731 0.71097925 -3.43572731 0.71097925 0 0 Z " fill="#E2F0F3" transform="translate(112.702880859375,14.440673828125)"/>
<path d="M0 0 C12.53780331 9.74725774 21.45635148 22.97731383 23.4921875 38.9375 C24.11887934 49.31969477 24.3764033 60.12005548 20.4921875 69.9375 C19.8321875 70.5975 19.1721875 71.2575 18.4921875 71.9375 C15.3671875 71.5625 15.3671875 71.5625 12.4921875 70.9375 C11.15870551 66.80370583 11.98975313 63.91167224 13.00390625 59.79296875 C15.51641718 45.09980485 12.93139588 31.78306455 4.80859375 19.36328125 C-3.28716468 8.37257386 -14.12626965 2.25521821 -27.5078125 -0.0625 C-40.75134112 -1.29610491 -51.43928151 1.63388539 -62.5078125 8.9375 C-64.91834052 11.04531055 -67.20978976 13.19638527 -69.4375 15.49609375 C-71.5078125 16.9375 -71.5078125 16.9375 -74.203125 16.72265625 C-76.5078125 15.9375 -76.5078125 15.9375 -77.5078125 14.9375 C-77.36565018 10.71832546 -77.01189581 8.52936333 -74.2421875 5.27734375 C-52.22470049 -12.44615692 -24.14368861 -16.62117436 0 0 Z " fill="#E3F0F3" transform="translate(217.5078125,70.0625)"/>
<path d="M0 0 C4.38492226 3.41464159 7.33920999 7.32618045 8.8984375 12.6796875 C9.00286033 14.76847816 9.03175363 16.86202985 8.99609375 18.953125 C8.98199463 20.02739746 8.96789551 21.10166992 8.95336914 22.20849609 C8.9352417 23.02398926 8.91711426 23.83948242 8.8984375 24.6796875 C8.23650391 24.66921387 7.57457031 24.65874023 6.89257812 24.64794922 C-7.5682621 24.45138928 -21.78321798 24.84488311 -36.1796875 26.2421875 C-39.83657318 26.59439319 -43.42360995 26.77842448 -47.1015625 26.6796875 C-47.52627475 17.90230094 -46.61017775 10.31429051 -40.9140625 3.3046875 C-30.08824395 -8.04866035 -12.85817333 -8.07818325 0 0 Z " fill="#E1EFF3" transform="translate(126.1015625,143.3203125)"/>
<path d="M0 0 C2.5317991 1.90636654 3.95050141 3.4949977 5.01953125 6.48828125 C5.08203125 8.86328125 5.08203125 8.86328125 4.08203125 11.86328125 C3.85877311 13.92221746 3.67497366 15.98561778 3.51953125 18.05078125 C3.43574219 19.13746094 3.35195312 20.22414062 3.265625 21.34375 C3.17474609 22.59091797 3.17474609 22.59091797 3.08203125 23.86328125 C2.25179443 24.0240918 1.42155762 24.18490234 0.56616211 24.35058594 C-19.55782476 28.1642279 -19.55782476 28.1642279 -39.3984375 33.19921875 C-41.91796875 33.86328125 -41.91796875 33.86328125 -44.91796875 33.86328125 C-45.76473443 12.05906493 -45.76473443 12.05906493 -37.79296875 3.05078125 C-27.60296157 -6.2521977 -11.76235913 -6.97117415 0 0 Z " fill="#E0EFF3" transform="translate(70.91796875,147.13671875)"/>
<path d="M0 0 C1.61798039 0.95078569 3.22581943 1.9189956 4.82421875 2.90234375 C5.65928955 3.40096924 6.49436035 3.89959473 7.35473633 4.41333008 C13.25519114 7.97083057 19.00545965 11.69245579 24.51171875 15.83984375 C21.94440435 18.40715815 19.53769536 19.10761187 16.13671875 20.40234375 C2.6650342 25.6531446 -10.56683033 31.49105216 -23.15234375 38.625 C-25.48828125 39.83984375 -25.48828125 39.83984375 -27.48828125 39.83984375 C-27.48828125 27.95984375 -27.48828125 16.07984375 -27.48828125 3.83984375 C-7.62647023 -4.10488066 -7.62647023 -4.10488066 0 0 Z " fill="#71C5DA" transform="translate(46.48828125,188.16015625)"/>
<path d="M0 0 C-1.65 0.33 -3.3 0.66 -5 1 C-4.154375 1.515625 -3.30875 2.03125 -2.4375 2.5625 C2.27091384 5.70144256 7.18143741 9.54431223 9 15 C6.11930743 19.73016445 1.51019589 23.86247242 -3 27 C-5.52233797 26.85987011 -6.76001092 26.11999454 -9 25 C-8.7525 26.11375 -8.7525 26.11375 -8.5 27.25 C-8 30 -8 30 -8 34 C-9.41152278 35.24739223 -10.83407271 36.48675734 -12.33203125 37.62890625 C-14.95309601 39.78345831 -16.89993957 42.34404122 -19 45 C-21.86737643 44.64709213 -22.8561453 44.16086977 -24.81640625 41.96875 C-25.39261719 41.1540625 -25.96882812 40.339375 -26.5625 39.5 C-29.05547675 35.82165712 -29.05547675 35.82165712 -33 34 C-35.43818038 26.68545885 -34.69961574 19.57050734 -31.5 12.625 C-27.18664298 4.8973229 -21.60480884 0.9220262 -13.171875 -1.53515625 C-8.34181853 -2.56892733 -4.23675566 -2.71152362 0 0 Z " fill="#50ABD5" transform="translate(190,93)"/>
<path d="M0 0 C5.73568814 3.0816986 9.01793156 7.72336311 11.875 13.4375 C11.875 18.7175 11.875 23.9975 11.875 29.4375 C-0.335 29.4375 -12.545 29.4375 -25.125 29.4375 C-25.455 24.4875 -25.785 19.5375 -26.125 14.4375 C-27.04381767 10.35794953 -27.94424035 6.42534863 -29.125 2.4375 C-20.85493047 -3.07587969 -9.27755079 -3.63856406 0 0 Z " fill="#E1EFF3" transform="translate(220.125,217.5625)"/>
<path d="M0 0 C5.08176458 2.46639389 8.55414471 5.90385972 11 11 C11.79478726 17.12200996 11.93850038 22.98396215 9.3125 28.625 C4.56457625 33.50124602 1.09389585 36.12269316 -5.8125 36.25 C-10.28114704 36.19145877 -13.24345881 35.59380225 -17 33 C-22.15368623 27.55999787 -23.43797665 22.76787444 -23.2421875 15.42578125 C-22.61935018 9.18736231 -19.22605974 5.97231991 -14.62109375 2.19921875 C-10.23887986 -1.04256357 -5.23484864 -0.74783552 0 0 Z " fill="#E1EFF3" transform="translate(162,165)"/>
<path d="M0 0 C4.43026142 0.55378268 8.04321293 1.73857296 12.0703125 3.57421875 C14.06706302 4.24816662 14.06706302 4.24816662 15.828125 2.88671875 C18 2 18 2 21.1015625 3.1953125 C22.2838676 3.82404115 23.45805629 4.46819907 24.625 5.125 C25.87593196 5.79220719 27.12854996 6.45626263 28.3828125 7.1171875 C28.99672852 7.44299805 29.61064453 7.76880859 30.24316406 8.10449219 C33.3096631 9.66757146 36.49809351 10.87604899 39.71875 12.078125 C42.56393089 13.22788988 45.26908474 14.60315254 48 16 C47.97679687 15.01257813 47.95359375 14.02515625 47.9296875 13.0078125 C47.91164062 11.72648438 47.89359375 10.44515625 47.875 9.125 C47.85179687 7.84882813 47.82859375 6.57265625 47.8046875 5.2578125 C48 2 48 2 50 0 C50.495 2.475 50.495 2.475 51 5 C51.66 4.01 52.32 3.02 53 2 C53.02578125 2.70125 53.0515625 3.4025 53.078125 4.125 C53.51679712 11.46278813 54.52168054 17.73248778 60.0625 22.9375 C65.96547308 26.17461427 73.62173172 25.70087154 80 24 C77.94766315 26.2477975 76.99332739 27.0022242 74 28 C71.67871386 28.02896435 69.37784195 27.93505098 67.05859375 27.83984375 C64.77335637 27.79322354 64.77335637 27.79322354 63 30 C63.495 30.99 63.495 30.99 64 32 C63.20335937 32.30292969 62.40671875 32.60585937 61.5859375 32.91796875 C51.60245173 36.86521069 46.2898298 40.56725039 41 50 C39.68 48.68 38.36 47.36 37 46 C38.67846873 40.81200574 41.61081789 36.52642191 46.25 33.5625 C48.95710251 31.14544419 48.73709124 28.48354106 49 25 C40.88138546 22.29379515 32.36257855 24.75918816 24.3125 26.5 C22.10120981 26.97320843 19.88899572 27.44212474 17.67578125 27.90625 C16.70552002 28.11572266 15.73525879 28.32519531 14.7355957 28.54101562 C12.09745696 28.98364845 9.66872142 29.08503949 7 29 C7 26.69 7 24.38 7 22 C8.14597656 21.73445313 9.29195312 21.46890625 10.47265625 21.1953125 C12.00262536 20.83863258 13.53257209 20.48185663 15.0625 20.125 C15.81466797 19.95097656 16.56683594 19.77695313 17.34179688 19.59765625 C21.93743017 18.52335236 26.47297949 17.33465943 31 16 C20.74881324 10.81378856 10.43814002 5.79914484 0 1 C0 0.67 0 0.34 0 0 Z " fill="#4DA9D4" transform="translate(86,175)"/>
<path d="M0 0 C0.4375 3.125 0.4375 3.125 0 7 C-1.34765625 8.44921875 -1.34765625 8.44921875 -3.125 9.8125 C-11.71850583 16.4228891 -14.16108746 25.7085421 -16 36 C-19.4534417 34.51891127 -21.64921326 32.57178301 -24.265625 29.89453125 C-25.47798828 28.66573242 -25.47798828 28.66573242 -26.71484375 27.41210938 C-27.55144531 26.55423828 -28.38804688 25.69636719 -29.25 24.8125 C-34.97823815 18.96286277 -40.73709967 13.27956848 -47 8 C-44.8565976 5.8565976 -43.98610232 5.55147692 -41.140625 4.81640625 C-39.97140503 4.51029419 -39.97140503 4.51029419 -38.77856445 4.19799805 C-37.94413818 3.98828369 -37.10971191 3.77856934 -36.25 3.5625 C-35.39688232 3.34440674 -34.54376465 3.12631348 -33.66479492 2.90161133 C-31.11263396 2.25586081 -28.55749254 1.62427383 -26 1 C-25.29504395 0.82758789 -24.59008789 0.65517578 -23.86376953 0.47753906 C-5.79894724 -3.86596482 -5.79894724 -3.86596482 0 0 Z " fill="#75C7DC" transform="translate(135,200)"/>
<path d="M0 0 C0.92167969 0.44601563 1.84335938 0.89203125 2.79296875 1.3515625 C9.6084138 4.85116969 16.37839161 8.43214449 23.125 12.0625 C20.67289518 14.51460482 19.70082088 14.40531981 16.3125 14.8125 C7.42867772 16.14345023 -1.09076179 18.86676914 -9.68359375 21.42993164 C-10.76833984 21.74305298 -10.76833984 21.74305298 -11.875 22.0625 C-12.58156738 22.28268799 -13.28813477 22.50287598 -14.01611328 22.72973633 C-15.875 23.0625 -15.875 23.0625 -18.1796875 21.7265625 C-19.02789062 21.05367187 -19.87609375 20.38078125 -20.75 19.6875 C-25.78688273 15.82135217 -30.966505 12.37155668 -36.36669922 9.03369141 C-40.77091129 6.27067741 -40.77091129 6.27067741 -41.875 4.0625 C-35.78899206 2.1648964 -29.65179126 1.02247672 -23.375 -0.0625 C-22.36824219 -0.24425781 -21.36148438 -0.42601562 -20.32421875 -0.61328125 C-6.28562122 -3.06037623 -6.28562122 -3.06037623 0 0 Z " fill="#75C7DB" transform="translate(94.875,178.9375)"/>
<path d="M0 0 C7.59 0 15.18 0 23 0 C21.33772406 1.10818396 19.66376327 2.20110159 17.94921875 3.2265625 C10.81460493 7.63794721 5.61500022 12.88532949 3 21 C2.7076418 23.93711296 2.72152523 26.86035935 2.73257446 29.81010437 C2.72804335 30.69753525 2.72351224 31.58496613 2.71884382 32.49928886 C2.70618305 35.47313026 2.70782129 38.44678892 2.70947266 41.4206543 C2.70348836 43.55292496 2.69668304 45.68519346 2.68911743 47.81745911 C2.67143778 53.6110497 2.66676115 59.40458122 2.66548586 65.19819617 C2.66406454 68.81902986 2.65979524 72.43984852 2.65449142 76.06067848 C2.63598294 88.69630512 2.62782163 101.33188955 2.62939453 113.9675293 C2.63059537 125.73894686 2.60950635 137.51018089 2.5779072 149.28155202 C2.55173519 159.39213761 2.54102767 169.5026633 2.54230535 179.6132825 C2.54281481 185.64985878 2.53714038 191.68627207 2.51594925 197.72281456 C2.49655209 203.40360378 2.49645277 209.08407482 2.51098251 214.76487541 C2.51307002 216.84572058 2.50837322 218.92658573 2.4962616 221.0073967 C2.43190665 232.83322629 2.48478802 242.16267901 9.1875 252.3125 C12.76480835 255.73081687 16.58995125 257.82258774 21 260 C22.32 260.66 23.64 261.32 25 262 C16.75 262 8.5 262 0 262 C0 175.54 0 89.08 0 0 Z " fill="#E6F1F3" transform="translate(0,0)"/>
<path d="M0 0 C7.59 0 15.18 0 23 0 C23 86.46 23 172.92 23 262 C15.08 262 7.16 262 -1 262 C1.33838358 260.44107761 3.2198495 259.45790441 5.75 258.375 C12.30883352 255.12578045 16.56423319 249.73661528 19.36018467 243.03831923 C20.5159604 239.35625695 20.41903066 235.70350835 20.39440918 231.87345886 C20.40050028 230.97615203 20.40659139 230.07884519 20.41286707 229.15434724 C20.42946554 226.15900183 20.42472571 223.16408298 20.41992188 220.16870117 C20.42726407 218.01642924 20.43585074 215.86416124 20.44558716 213.7118988 C20.46779711 207.87295022 20.47073404 202.03414279 20.46883965 196.19515777 C20.46871991 191.31703703 20.47728545 186.43894617 20.48561716 181.56083375 C20.50484978 170.04956875 20.50773571 158.53837627 20.50097656 147.02709961 C20.49433728 135.16129811 20.5171962 123.29580758 20.55429029 111.43006915 C20.58500389 101.23450881 20.59634546 91.03904841 20.59245348 80.84344274 C20.59038754 74.75768213 20.59584155 68.67216347 20.62034607 62.58644676 C20.64263747 56.86124395 20.64071495 51.136546 20.62041855 45.41134071 C20.61701268 43.31436901 20.62207926 41.21736317 20.63640213 39.12043762 C20.98822032 22.72166559 20.98822032 22.72166559 13.02193451 8.88977337 C9.08529241 5.0976966 5.12683007 2.81575231 0 1 C0 0.67 0 0.34 0 0 Z " fill="#CAE3EE" transform="translate(239,0)"/>
<path d="M0 0 C4.39173171 2.28032223 7.22826955 4.92630849 10 9 C11.10837017 14.31065709 11.25079962 19.7150197 8.6015625 24.5546875 C4.94177321 28.91766775 1.67262893 31.56874433 -4.0625 32.2421875 C-9.59818987 32.56011563 -13.77647145 31.7202065 -18 28 C-20.84304972 24.60179856 -21.91834913 21.78929174 -22.375 17.375 C-21.75150001 11.76350005 -19.95339522 8.05743193 -16 4 C-10.75199921 0.40803502 -6.30286054 -0.81327233 0 0 Z " fill="#E1EFF3" transform="translate(114,101)"/>
<path d="M0 0 C4.54899013 1.13200676 7.53363892 4.15990445 10.54296875 7.6328125 C12.63368247 11.81423994 11.97747752 17.07939863 11.54296875 21.6328125 C9.56010645 25.66935361 7.37717014 28.2828181 3.54296875 30.6328125 C-1.51865961 32.32002195 -5.19133029 32.14767391 -10.14453125 30.1328125 C-14.19083626 27.54463542 -16.06530332 24.16210459 -17.45703125 19.6328125 C-18.22513063 15.40430665 -17.81316813 12.3313887 -15.83203125 8.4453125 C-11.00491305 2.72898832 -7.64666094 -0.34704966 0 0 Z " fill="#E1EFF2" transform="translate(55.45703125,107.3671875)"/>
<path d="M0 0 C4.63444994 2.3072798 7.39752797 5.43492397 9.0703125 10.34375 C9.97544545 15.66140605 8.95967493 19.80332332 6.0703125 24.34375 C3.21620407 27.64381287 1.22796371 29.04575272 -3.1640625 29.65234375 C-7.9256628 29.8963388 -11.12490283 29.78016287 -14.9296875 26.71875 C-18.77309844 22.85725242 -19.67586099 19.30184023 -20.3671875 13.96875 C-19.67053898 8.1965194 -16.98572273 4.12194263 -12.6171875 0.34375 C-8.27308966 -1.2726585 -4.36024687 -1.48283699 0 0 Z " fill="#E1EFF3" transform="translate(211.9296875,181.65625)"/>
<path d="M0 0 C3.84155682 1.82152846 6.48884137 4.51918152 9.4453125 7.53125 C10.05117187 8.11326172 10.65703125 8.69527344 11.28125 9.29492188 C11.8484375 9.86404297 12.415625 10.43316406 13 11.01953125 C13.51804199 11.53684814 14.03608398 12.05416504 14.56982422 12.5871582 C15.5703125 14.21875 15.5703125 14.21875 15.37866211 16.24169922 C14.07196364 19.43760505 11.66536171 21.636159 9.2578125 24.03125 C8.77119141 24.54623047 8.28457031 25.06121094 7.78320312 25.59179688 C4.18242375 29.21196134 4.18242375 29.21196134 1.45703125 29.2421875 C-2.34185736 27.18150672 -5.28900992 24.14924839 -8.4296875 21.21875 C-9.05230469 20.6721875 -9.67492188 20.125625 -10.31640625 19.5625 C-11.9921875 18.03125 -11.9921875 18.03125 -14.4296875 15.21875 C-14.38348573 10.93122591 -11.01948318 8.25716759 -8.1796875 5.40625 C-7.70144531 4.89126953 -7.22320312 4.37628906 -6.73046875 3.84570312 C-4.5686013 1.65747144 -3.12283142 0.28115524 0 0 Z " fill="#E2EFF3" transform="translate(71.4296875,14.78125)"/>
<path d="M0 0 C2.42699289 0.96573253 3.69394813 2.1107261 5.51220703 3.97949219 C6.13095703 4.60791016 6.74970703 5.23632812 7.38720703 5.88378906 C8.02142578 6.54314453 8.65564453 7.2025 9.30908203 7.88183594 C9.95876953 8.54505859 10.60845703 9.20828125 11.27783203 9.89160156 C12.87854963 11.52762911 14.47184396 13.17024506 16.05908203 14.81933594 C14.29708312 18.58296962 12.09706669 21.14537837 9.18408203 24.13183594 C8.32041016 25.03546875 7.45673828 25.93910156 6.56689453 26.87011719 C4.05908203 28.81933594 4.05908203 28.81933594 2.11816406 28.63867188 C-0.30882883 27.67293935 -1.57578407 26.52794578 -3.39404297 24.65917969 C-4.01279297 24.03076172 -4.63154297 23.40234375 -5.26904297 22.75488281 C-5.90326172 22.09552734 -6.53748047 21.43617187 -7.19091797 20.75683594 C-7.84060547 20.09361328 -8.49029297 19.43039063 -9.15966797 18.74707031 C-10.76038557 17.11104277 -12.3536799 15.46842681 -13.94091797 13.81933594 C-12.17891906 10.05570226 -9.97890263 7.4932935 -7.06591797 4.50683594 C-6.20224609 3.60320313 -5.33857422 2.69957031 -4.44873047 1.76855469 C-1.94091797 -0.18066406 -1.94091797 -0.18066406 0 0 Z " fill="#E5F1F4" transform="translate(116.94091796875,54.1806640625)"/>
<path d="M0 0 C5.55429293 2.52807504 10.70328633 6.46060239 13.5 11.9375 C13.7475 12.9584375 13.7475 12.9584375 14 14 C13.32904297 14.54527344 13.32904297 14.54527344 12.64453125 15.1015625 C8.61206348 18.4547873 5.23995546 21.87642033 2 26 C-1.56426025 25.44332595 -2.9984483 24.33620065 -5.1875 21.5 C-8.17303307 17.25780123 -9.78064413 13.23431895 -9 8 C-6.8125 5.125 -6.8125 5.125 -4 3 C-3.236875 2.401875 -2.47375 1.80375 -1.6875 1.1875 C-1.130625 0.795625 -0.57375 0.40375 0 0 Z " fill="#71C5DA" transform="translate(169,112)"/>
<path d="M0 0 C3.94758287 1.33196415 6.34755485 2.96304762 9.25 5.9375 C9.93578125 6.62714844 10.6215625 7.31679687 11.328125 8.02734375 C13 10 13 10 14 13 C11.11930743 17.73016445 6.51019589 21.86247242 2 25 C-2.25648014 24.86530126 -4.45045177 21.84755671 -7.25 18.9375 C-8.14203125 18.01839844 -9.0340625 17.09929687 -9.953125 16.15234375 C-10.62859375 15.44207031 -11.3040625 14.73179688 -12 14 C-10.41332422 10.09714233 -7.86649519 7.66479018 -4.875 4.75 C-3.96492187 3.85796875 -3.05484375 2.9659375 -2.1171875 2.046875 C-1.41851562 1.37140625 -0.71984375 0.6959375 0 0 Z " fill="#73C7DB" transform="translate(185,95)"/>
<path d="M0 0 C2.64140795 1.19879284 4.25790761 2.78732252 6.28125 4.859375 C6.98765625 5.56964844 7.6940625 6.27992188 8.421875 7.01171875 C10.03125 8.921875 10.03125 8.921875 10.03125 10.921875 C9.37125 10.921875 8.71125 10.921875 8.03125 10.921875 C7.804375 11.499375 7.5775 12.076875 7.34375 12.671875 C5.0783808 16.55536505 2.2509718 18.4547475 -1.90625 20.046875 C-5.96648154 19.88115126 -7.19214882 18.35251371 -9.8671875 15.46484375 C-10.96875 13.921875 -10.96875 13.921875 -10.96875 11.921875 C-11.62875 11.921875 -12.28875 11.921875 -12.96875 11.921875 C-12.30875 10.601875 -11.64875 9.281875 -10.96875 7.921875 C-10.30875 7.921875 -9.64875 7.921875 -8.96875 7.921875 C-8.96875 7.261875 -8.96875 6.601875 -8.96875 5.921875 C-7.578125 4.37890625 -7.578125 4.37890625 -5.71875 2.734375 C-5.11546875 2.18394531 -4.5121875 1.63351563 -3.890625 1.06640625 C-1.96875 -0.078125 -1.96875 -0.078125 0 0 Z " fill="#6EC4D9" transform="translate(190.96875,124.078125)"/>
<path d="M0 0 C4.1117256 -0.02465746 8.22342278 -0.04283959 12.33520508 -0.05493164 C13.73495228 -0.0599708 15.1346942 -0.06680216 16.53442383 -0.07543945 C18.54245777 -0.0875232 20.55052957 -0.09269807 22.55859375 -0.09765625 C24.37315063 -0.10551147 24.37315063 -0.10551147 26.22436523 -0.11352539 C29 0 29 0 30 1 C30.07313567 3.53049402 30.09247527 6.03304837 30.0625 8.5625 C30.05798828 9.27341797 30.05347656 9.98433594 30.04882812 10.71679688 C30.03700864 12.47790013 30.01907263 14.23896036 30 16 C23.99331804 14.8230453 18.68402552 11.36673024 13.3125 8.5625 C11.56356445 7.6643457 11.56356445 7.6643457 9.77929688 6.74804688 C8.67263672 6.17248047 7.56597656 5.59691406 6.42578125 5.00390625 C4.90078003 4.21222046 4.90078003 4.21222046 3.3449707 3.40454102 C1 2 1 2 0 0 Z " fill="#76C8DC" transform="translate(104,175)"/>
<path d="M0 0 C3.38347672 2.25565115 3.60961771 3.05463579 4.875 6.75 C8.16000928 15.30086686 13.02084677 19.0603823 21 23 C22.32 23.66 23.64 24.32 25 25 C16.75 25 8.5 25 0 25 C0 16.75 0 8.5 0 0 Z " fill="#D3ECF3" transform="translate(0,237)"/>
<path d="M0 0 C7.59 0 15.18 0 23 0 C23 7.59 23 15.18 23 23 C21.8523486 20.70469719 20.73383372 18.3931088 19.703125 16.04296875 C15.67415239 8.84441447 7.74427255 3.58142418 0 1 C0 0.67 0 0.34 0 0 Z " fill="#D2ECF3" transform="translate(239,0)"/>
<path d="M0 0 C7.59 0 15.18 0 23 0 C22.01 0.66 21.02 1.32 20 2 C19.30003906 2.474375 18.60007812 2.94875 17.87890625 3.4375 C17.11449219 3.953125 16.35007812 4.46875 15.5625 5 C14.80066406 5.515625 14.03882813 6.03125 13.25390625 6.5625 C11 8 11 8 8.87890625 8.87890625 C6.27426121 10.43302917 5.61948374 12.20365024 4.375 14.9375 C3.03896803 17.82656276 1.7730968 20.34035479 0 23 C0 15.41 0 7.82 0 0 Z " fill="#D1EBF2" transform="translate(0,0)"/>
<path d="M0 0 C0.33 0 0.66 0 1 0 C1 7.26 1 14.52 1 22 C-6.92 22 -14.84 22 -23 22 C-20 20 -20 20 -16.25 19.3125 C-11.07044358 18.05800193 -8.08987773 15.25983144 -5 11 C-3.09414767 7.41930774 -1.4811474 3.77453693 0 0 Z " fill="#CEEAF2" transform="translate(261,240)"/>
<path d="M0 0 C0.33 0.66 0.66 1.32 1 2 C0.22265625 3.7421875 0.22265625 3.7421875 -0.9375 5.875 C-3.62478313 11.53584042 -3.37453373 16.85140459 -3 23 C-2.38769531 23.26296875 -1.77539062 23.5259375 -1.14453125 23.796875 C2.14836744 25.64425714 3.74575204 28.53827564 5 32 C4.75 35.4375 4.75 35.4375 4 38 C-1.18706675 34.68604069 -3.52115719 30.86001351 -5 25 C-5.87253824 16.28343116 -6.05837358 8.51091835 -1 1 C-0.67 0.67 -0.34 0.34 0 0 Z " fill="#369ECE" transform="translate(160,101)"/>
<path d="M0 0 C0 0.66 0 1.32 0 2 C1.32 2.33 2.64 2.66 4 3 C3.67 3.99 3.34 4.98 3 6 C3.804375 5.835 4.60875 5.67 5.4375 5.5 C11.33981925 4.67160432 17.18891148 4.50036425 23 6 C23 6.33 23 6.66 23 7 C15.74 7.33 8.48 7.66 1 8 C0.01 6.35 -0.98 4.7 -2 3 C-6.08378283 3.74250597 -10.01939223 4.82923301 -14 6 C-10.44167106 1.60441719 -5.49342669 0 0 0 Z " fill="#F0F7F7" transform="translate(170,62)"/>
<path d="M0 0 C0 3 0 3 -1.9375 6.125 C-5.45196327 12.706857 -4.83446434 20.71643097 -5 28 C-4.0925 27.649375 -3.185 27.29875 -2.25 26.9375 C0.87758436 26.03531221 2.05208081 25.86618493 5 27 C3.56445975 27.50559908 2.1264798 28.0042749 0.6875 28.5 C-0.11300781 28.7784375 -0.91351563 29.056875 -1.73828125 29.34375 C-4 30 -4 30 -7 30 C-7.78915755 9.67919298 -7.78915755 9.67919298 -3 3 C-2.02590007 1.97475401 -1.03199801 0.96694369 0 0 Z " fill="#F1F7F7" transform="translate(33,151)"/>
<path d="M0 0 C4.59306496 1.4859916 7.43569245 3.85014682 11 7 C11.66 6.67 12.32 6.34 13 6 C16.57983659 9.34118082 18.89716734 11.73768141 19.125 16.75 C19.08375 17.4925 19.0425 18.235 19 19 C17.04783565 17.04783565 16.15173355 15.46800047 15 13 C15 14.65 15 16.3 15 18 C13.29381077 15.781954 11.75470094 13.59116824 10.3125 11.1875 C7.75976725 7.66886837 4.94301437 5.17369619 1.609375 2.41796875 C1.07828125 1.95003906 0.5471875 1.48210937 0 1 C0 0.67 0 0.34 0 0 Z " fill="#389FD0" transform="translate(174,210)"/>
<path d="M0 0 C0.33 0 0.66 0 1 0 C1.33 1.65 1.66 3.3 2 5 C2.66 4.01 3.32 3.02 4 2 C4 6.29 4 10.58 4 15 C3.01 15.33 2.02 15.66 1 16 C0.34 15.67 -0.32 15.34 -1 15 C-1.02693575 12.87506859 -1.04636628 10.75004088 -1.0625 8.625 C-1.07410156 7.44164062 -1.08570313 6.25828125 -1.09765625 5.0390625 C-1 2 -1 2 0 0 Z " fill="#3FA1D1" transform="translate(135,175)"/>
<path d="M0 0 C0.66 0.33 1.32 0.66 2 1 C1.29423828 2.02673828 1.29423828 2.02673828 0.57421875 3.07421875 C-1.21278593 6.39547559 -1.69805359 9.08517732 -2.1875 12.8125 C-2.42533203 14.55466797 -2.42533203 14.55466797 -2.66796875 16.33203125 C-2.77753906 17.21246094 -2.88710937 18.09289062 -3 19 C-0.03 19 2.94 19 6 19 C6 19.33 6 19.66 6 20 C2.37 20.33 -1.26 20.66 -5 21 C-5.33050781 14.16950529 -4.62376027 8.36683111 -2 2 C-1.34 1.34 -0.68 0.68 0 0 Z " fill="#EEF5F7" transform="translate(84,149)"/>
<path d="M0 0 C1.32 0.66 2.64 1.32 4 2 C3.04367001 3.29315061 2.08486149 4.58446853 1.125 5.875 C0.59132812 6.59429687 0.05765625 7.31359375 -0.4921875 8.0546875 C-2 10 -2 10 -4 12 C-5.4606285 9.35261084 -6 8.10551666 -6 5 C-4.5 3.3125 -4.5 3.3125 -3 2 C-2.67 2.66 -2.34 3.32 -2 4 C-1.34 2.68 -0.68 1.36 0 0 Z " fill="#44A3D1" transform="translate(130,213)"/>
<path d="M0 0 C2 0 2 0 3.625 1.3125 C5 3 5 3 5 6 C5.556875 6.20625 6.11375 6.4125 6.6875 6.625 C9.92501302 8.55000774 11.68231141 11.03850902 14 14 C10.2954183 14 9.36907694 12.75902467 6.82617188 10.23632812 C6.32666016 9.72521484 5.82714844 9.21410156 5.3125 8.6875 C4.80138672 8.18798828 4.29027344 7.68847656 3.76367188 7.17382812 C0 3.38000668 0 3.38000668 0 0 Z " fill="#D7E9F0" transform="translate(57,27)"/>
<path d="M0 0 C0.66 0.99 1.32 1.98 2 3 C-5.02436254 7.40744316 -10.82632933 7.4485551 -19 7 C-19 6.67 -19 6.34 -19 6 C-15.7 6 -12.4 6 -9 6 C-8.67 5.34 -8.34 4.68 -8 4 C-7.401875 3.855625 -6.80375 3.71125 -6.1875 3.5625 C-3.58775458 2.89399403 -2.05662055 1.68936688 0 0 Z " fill="#57AED6" transform="translate(198,139)"/>
<path d="M0 0 C7.32627475 -0.47266289 12.37384327 0.90133798 19 4 C15.52151253 5.15949582 13.65518027 4.83619752 10.0625 4.25 C9.02222656 4.09015625 7.98195312 3.9303125 6.91015625 3.765625 C3.93389161 2.98260773 2.29230136 2.01059686 0 0 Z " fill="#329DCF" transform="translate(186,70)"/>
<path d="M0 0 C1.32 0.66 2.64 1.32 4 2 C4 2.66 4 3.32 4 4 C4.66 4 5.32 4 6 4 C6 4.66 6 5.32 6 6 C3.03 6.66 0.06 7.32 -3 8 C-2.34 6.68 -1.68 5.36 -1 4 C-1 3.01 -1 2.02 -1 1 C-0.67 0.67 -0.34 0.34 0 0 Z " fill="#3EA0D0" transform="translate(64,65)"/>
<path d="M0 0 C1.14095044 3.42285131 0.74568735 4.54449457 0 8 C-0.21698487 10.43505237 -0.40290745 12.87301384 -0.5625 15.3125 C-0.64628906 16.56675781 -0.73007813 17.82101563 -0.81640625 19.11328125 C-0.87699219 20.06589844 -0.93757813 21.01851562 -1 22 C-1.33 22 -1.66 22 -2 22 C-2.33 15.4 -2.66 8.8 -3 2 C-2.01 2 -1.02 2 0 2 C0 1.34 0 0.68 0 0 Z " fill="#2C99CE" transform="translate(125,225)"/>
<path d="M0 0 C0.99 0.495 0.99 0.495 2 1 C2 1.66 2 2.32 2 3 C2.5775 3.12375 3.155 3.2475 3.75 3.375 C6 4 6 4 7.8125 5.125 C11.03718744 6.41487498 13.65812618 5.64266804 17 5 C16.01 6.485 16.01 6.485 15 8 C9.72221674 8.60897499 6.57465447 7.55329552 2 5 C1.34 5 0.68 5 0 5 C0 3.35 0 1.7 0 0 Z " fill="#F3F8F9" transform="translate(84,55)"/>
<path d="M0 0 C1.13115234 0.07831055 1.13115234 0.07831055 2.28515625 0.15820312 C4.1487937 0.28795004 6.01194996 0.42457488 7.875 0.5625 C7.875 0.8925 7.875 1.2225 7.875 1.5625 C7.01777344 1.62308594 6.16054687 1.68367187 5.27734375 1.74609375 C-0.56104873 2.17393536 -6.34557272 2.621663 -12.125 3.5625 C-11.465 3.2325 -10.805 2.9025 -10.125 2.5625 C-10.125 1.9025 -10.125 1.2425 -10.125 0.5625 C-6.91158631 -1.04420684 -3.49541032 -0.26260855 0 0 Z " fill="#2B9ACF" transform="translate(106.125,136.4375)"/>
<path d="M0 0 C1.32 0 2.64 0 4 0 C4 1.32 4 2.64 4 4 C6.97 4 9.94 4 13 4 C13 4.33 13 4.66 13 5 C11.25034642 5.05429959 9.50020213 5.09292823 7.75 5.125 C6.77546875 5.14820313 5.8009375 5.17140625 4.796875 5.1953125 C1.9803502 4.99862781 0.39050964 4.44568916 -2 3 C-1.01 2.67 -0.02 2.34 1 2 C0.67 1.34 0.34 0.68 0 0 Z " fill="#6CB6DA" transform="translate(148,202)"/>
<path d="M0 0 C2.87467007 3.24962703 3.39438953 5.76072673 4 10 C4.62225605 11.68375165 5.27544365 13.35767228 6 15 C2.91620904 12.22458814 1.14588471 10.01059647 0 6 C-0.125 2.6875 -0.125 2.6875 0 0 Z " fill="#38A0D0" transform="translate(3,236)"/>
<path d="M0 0 C-0.33 0.66 -0.66 1.32 -1 2 C-7.93 1.505 -7.93 1.505 -15 1 C-15 0.67 -15 0.34 -15 0 C-4.44191344 -1.33257403 -4.44191344 -1.33257403 0 0 Z " fill="#2D9ACD" transform="translate(167,205)"/>
<path d="M0 0 C1.32 0.66 2.64 1.32 4 2 C2.35 3.98 0.7 5.96 -1 8 C-2 6 -2 6 -1.0625 2.875 C-0.5365625 1.451875 -0.5365625 1.451875 0 0 Z " fill="#399FCF" transform="translate(130,213)"/>
<path d="M0 0 C0.33 0.66 0.66 1.32 1 2 C-0.125 5.0625 -0.125 5.0625 -2 8 C-4.6875 8.875 -4.6875 8.875 -7 9 C-6.02180976 7.68677212 -5.0424189 6.37443848 -4.0625 5.0625 C-3.51722656 4.33160156 -2.97195312 3.60070312 -2.41015625 2.84765625 C-1 1 -1 1 0 0 Z " fill="#339BCE" transform="translate(220,202)"/>
<path d="M0 0 C3.96 0.33 7.92 0.66 12 1 C12 1.33 12 1.66 12 2 C6.06 2.495 6.06 2.495 0 3 C0 2.01 0 1.02 0 0 Z " fill="#59AED9" transform="translate(45,139)"/>
<path d="M0 0 C0.28875 0.61875 0.5775 1.2375 0.875 1.875 C1.93720042 4.13325765 1.93720042 4.13325765 4 6 C4.66 6 5.32 6 6 6 C6.33 6.99 6.66 7.98 7 9 C5.68 9.33 4.36 9.66 3 10 C0.59185923 6.48812804 -0.36629408 4.27343092 0 0 Z " fill="#EAF2F5" transform="translate(93,119)"/>
</svg>
